<svg xmlns="http://www.w3.org/2000/svg" aria-hidden="true" style="position:absolute;width:0;height:0;overflow:hidden"><defs><symbol id="icon-arrow" viewBox="0 0 32 32"><path fill="none" stroke-linecap="round" stroke-linejoin="round" stroke-width="4.571" d="M16 29.714 29.714 16M16 29.714 2.286 16M16 29.714V2.285"/></symbol><symbol id="icon-basket" viewBox="0 0 29 32"><path d="M5.818 10.182V7.273a7.273 7.273 0 1 1 14.546 0v2.909h4.364a1.455 1.455 0 0 1 1.455 1.455v17.455a1.455 1.455 0 0 1-1.455 1.455H1.455A1.455 1.455 0 0 1 0 29.092V11.637a1.455 1.455 0 0 1 1.455-1.455h4.364zm0 2.909H2.909v14.545h20.364V13.091h-2.909V16h-2.909v-2.909H8.728V16H5.819v-2.909zm2.909-2.909h8.727V7.273a4.36 4.36 0 0 0-4.364-4.364 4.36 4.36 0 0 0-4.364 4.364v2.909z"/><path fill="#ff922c" d="M29.091 27.636a4.364 4.364 0 1 1-8.728 0 4.364 4.364 0 0 1 8.728 0z" style="fill:var(--color3, #ff922c)"/></symbol></defs></svg>